<mxfile host="app.diagrams.net" modified="2021-12-05T21:20:44.992Z" agent="5.0 (Windows NT 10.0; Win64; x64) AppleWebKit/537.36 (KHTML, like Gecko) Chrome/96.0.4664.45 Safari/537.36" etag="gm-zKYDoL5e4MzlHrgdB" version="15.9.1" type="github">
  <diagram id="u34CFR9qQYpUpJqxeAah" name="Page-1">
    <mxGraphModel dx="1422" dy="1936" grid="1" gridSize="10" guides="1" tooltips="1" connect="1" arrows="1" fold="1" page="1" pageScale="1" pageWidth="850" pageHeight="1100" math="0" shadow="0">
      <root>
        <mxCell id="0" />
        <mxCell id="1" parent="0" />
        <mxCell id="gBJKuatceqaCAAXsIEtv-6" value="StockSnapshot" style="swimlane;fontStyle=1;align=center;verticalAlign=top;childLayout=stackLayout;horizontal=1;startSize=26;horizontalStack=0;resizeParent=1;resizeParentMax=0;resizeLast=0;collapsible=1;marginBottom=0;" parent="1" vertex="1">
          <mxGeometry x="320" y="97" width="120" height="372" as="geometry" />
        </mxCell>
        <mxCell id="gBJKuatceqaCAAXsIEtv-79" value="- symbol: string" style="text;strokeColor=none;fillColor=none;align=left;verticalAlign=top;spacingLeft=4;spacingRight=4;overflow=hidden;rotatable=0;points=[[0,0.5],[1,0.5]];portConstraint=eastwest;" parent="gBJKuatceqaCAAXsIEtv-6" vertex="1">
          <mxGeometry y="26" width="120" height="26" as="geometry" />
        </mxCell>
        <mxCell id="gBJKuatceqaCAAXsIEtv-7" value="- date: time_t" style="text;strokeColor=none;fillColor=none;align=left;verticalAlign=top;spacingLeft=4;spacingRight=4;overflow=hidden;rotatable=0;points=[[0,0.5],[1,0.5]];portConstraint=eastwest;" parent="gBJKuatceqaCAAXsIEtv-6" vertex="1">
          <mxGeometry y="52" width="120" height="26" as="geometry" />
        </mxCell>
        <mxCell id="gBJKuatceqaCAAXsIEtv-10" value="- open: double" style="text;strokeColor=none;fillColor=none;align=left;verticalAlign=top;spacingLeft=4;spacingRight=4;overflow=hidden;rotatable=0;points=[[0,0.5],[1,0.5]];portConstraint=eastwest;" parent="gBJKuatceqaCAAXsIEtv-6" vertex="1">
          <mxGeometry y="78" width="120" height="26" as="geometry" />
        </mxCell>
        <mxCell id="gBJKuatceqaCAAXsIEtv-14" value="- high: double" style="text;strokeColor=none;fillColor=none;align=left;verticalAlign=top;spacingLeft=4;spacingRight=4;overflow=hidden;rotatable=0;points=[[0,0.5],[1,0.5]];portConstraint=eastwest;" parent="gBJKuatceqaCAAXsIEtv-6" vertex="1">
          <mxGeometry y="104" width="120" height="26" as="geometry" />
        </mxCell>
        <mxCell id="gBJKuatceqaCAAXsIEtv-17" value="- low: double" style="text;strokeColor=none;fillColor=none;align=left;verticalAlign=top;spacingLeft=4;spacingRight=4;overflow=hidden;rotatable=0;points=[[0,0.5],[1,0.5]];portConstraint=eastwest;" parent="gBJKuatceqaCAAXsIEtv-6" vertex="1">
          <mxGeometry y="130" width="120" height="26" as="geometry" />
        </mxCell>
        <mxCell id="gBJKuatceqaCAAXsIEtv-18" value="- close: double" style="text;strokeColor=none;fillColor=none;align=left;verticalAlign=top;spacingLeft=4;spacingRight=4;overflow=hidden;rotatable=0;points=[[0,0.5],[1,0.5]];portConstraint=eastwest;" parent="gBJKuatceqaCAAXsIEtv-6" vertex="1">
          <mxGeometry y="156" width="120" height="26" as="geometry" />
        </mxCell>
        <mxCell id="gBJKuatceqaCAAXsIEtv-8" value="" style="line;strokeWidth=1;fillColor=none;align=left;verticalAlign=middle;spacingTop=-1;spacingLeft=3;spacingRight=3;rotatable=0;labelPosition=right;points=[];portConstraint=eastwest;" parent="gBJKuatceqaCAAXsIEtv-6" vertex="1">
          <mxGeometry y="182" width="120" height="8" as="geometry" />
        </mxCell>
        <mxCell id="gBJKuatceqaCAAXsIEtv-143" value="+ getSymbol(): string" style="text;strokeColor=none;fillColor=none;align=left;verticalAlign=top;spacingLeft=4;spacingRight=4;overflow=hidden;rotatable=0;points=[[0,0.5],[1,0.5]];portConstraint=eastwest;" parent="gBJKuatceqaCAAXsIEtv-6" vertex="1">
          <mxGeometry y="190" width="120" height="26" as="geometry" />
        </mxCell>
        <mxCell id="gBJKuatceqaCAAXsIEtv-9" value="+ getDate(): time_t" style="text;strokeColor=none;fillColor=none;align=left;verticalAlign=top;spacingLeft=4;spacingRight=4;overflow=hidden;rotatable=0;points=[[0,0.5],[1,0.5]];portConstraint=eastwest;" parent="gBJKuatceqaCAAXsIEtv-6" vertex="1">
          <mxGeometry y="216" width="120" height="26" as="geometry" />
        </mxCell>
        <mxCell id="gBJKuatceqaCAAXsIEtv-19" value="+ getOpen(): double" style="text;strokeColor=none;fillColor=none;align=left;verticalAlign=top;spacingLeft=4;spacingRight=4;overflow=hidden;rotatable=0;points=[[0,0.5],[1,0.5]];portConstraint=eastwest;" parent="gBJKuatceqaCAAXsIEtv-6" vertex="1">
          <mxGeometry y="242" width="120" height="26" as="geometry" />
        </mxCell>
        <mxCell id="gBJKuatceqaCAAXsIEtv-20" value="+ getHigh(): double" style="text;strokeColor=none;fillColor=none;align=left;verticalAlign=top;spacingLeft=4;spacingRight=4;overflow=hidden;rotatable=0;points=[[0,0.5],[1,0.5]];portConstraint=eastwest;" parent="gBJKuatceqaCAAXsIEtv-6" vertex="1">
          <mxGeometry y="268" width="120" height="26" as="geometry" />
        </mxCell>
        <mxCell id="gBJKuatceqaCAAXsIEtv-21" value="+ getLow(): double" style="text;strokeColor=none;fillColor=none;align=left;verticalAlign=top;spacingLeft=4;spacingRight=4;overflow=hidden;rotatable=0;points=[[0,0.5],[1,0.5]];portConstraint=eastwest;" parent="gBJKuatceqaCAAXsIEtv-6" vertex="1">
          <mxGeometry y="294" width="120" height="26" as="geometry" />
        </mxCell>
        <mxCell id="gBJKuatceqaCAAXsIEtv-22" value="+ getClose(): double" style="text;strokeColor=none;fillColor=none;align=left;verticalAlign=top;spacingLeft=4;spacingRight=4;overflow=hidden;rotatable=0;points=[[0,0.5],[1,0.5]];portConstraint=eastwest;" parent="gBJKuatceqaCAAXsIEtv-6" vertex="1">
          <mxGeometry y="320" width="120" height="26" as="geometry" />
        </mxCell>
        <mxCell id="gBJKuatceqaCAAXsIEtv-24" value="+ toString(): string" style="text;strokeColor=none;fillColor=none;align=left;verticalAlign=top;spacingLeft=4;spacingRight=4;overflow=hidden;rotatable=0;points=[[0,0.5],[1,0.5]];portConstraint=eastwest;" parent="gBJKuatceqaCAAXsIEtv-6" vertex="1">
          <mxGeometry y="346" width="120" height="26" as="geometry" />
        </mxCell>
        <mxCell id="gBJKuatceqaCAAXsIEtv-80" value="«enum»&lt;br&gt;&lt;b&gt;Interval&lt;/b&gt;" style="html=1;" parent="1" vertex="1">
          <mxGeometry x="1520" y="40" width="80" height="40" as="geometry" />
        </mxCell>
        <mxCell id="gBJKuatceqaCAAXsIEtv-179" style="edgeStyle=orthogonalEdgeStyle;rounded=0;orthogonalLoop=1;jettySize=auto;html=1;startArrow=none;startFill=0;endArrow=classic;endFill=1;" parent="1" source="gBJKuatceqaCAAXsIEtv-95" target="gBJKuatceqaCAAXsIEtv-159" edge="1">
          <mxGeometry relative="1" as="geometry" />
        </mxCell>
        <mxCell id="gBJKuatceqaCAAXsIEtv-196" style="edgeStyle=orthogonalEdgeStyle;rounded=0;orthogonalLoop=1;jettySize=auto;html=1;startArrow=none;startFill=0;endArrow=classic;endFill=1;" parent="1" source="gBJKuatceqaCAAXsIEtv-95" target="gBJKuatceqaCAAXsIEtv-185" edge="1">
          <mxGeometry relative="1" as="geometry" />
        </mxCell>
        <mxCell id="gBJKuatceqaCAAXsIEtv-201" style="edgeStyle=orthogonalEdgeStyle;rounded=0;orthogonalLoop=1;jettySize=auto;html=1;startArrow=none;startFill=0;endArrow=classic;endFill=1;" parent="1" source="gBJKuatceqaCAAXsIEtv-95" target="gBJKuatceqaCAAXsIEtv-80" edge="1">
          <mxGeometry relative="1" as="geometry">
            <Array as="points">
              <mxPoint x="1550" y="283" />
            </Array>
          </mxGeometry>
        </mxCell>
        <mxCell id="gBJKuatceqaCAAXsIEtv-202" style="edgeStyle=orthogonalEdgeStyle;rounded=0;orthogonalLoop=1;jettySize=auto;html=1;startArrow=none;startFill=0;endArrow=classic;endFill=1;" parent="1" source="gBJKuatceqaCAAXsIEtv-95" target="gBJKuatceqaCAAXsIEtv-145" edge="1">
          <mxGeometry relative="1" as="geometry">
            <Array as="points">
              <mxPoint x="1460" y="283" />
              <mxPoint x="1460" y="-121" />
            </Array>
          </mxGeometry>
        </mxCell>
        <mxCell id="gBJKuatceqaCAAXsIEtv-95" value="StockSimulation" style="swimlane;fontStyle=1;align=center;verticalAlign=top;childLayout=stackLayout;horizontal=1;startSize=26;horizontalStack=0;resizeParent=1;resizeParentMax=0;resizeLast=0;collapsible=1;marginBottom=0;" parent="1" vertex="1">
          <mxGeometry x="800" y="171" width="640" height="224" as="geometry" />
        </mxCell>
        <mxCell id="gBJKuatceqaCAAXsIEtv-97" value="- stocks: unordered_map&lt;Stock, vector&lt;Bot*&gt;&gt;" style="text;strokeColor=none;fillColor=none;align=left;verticalAlign=top;spacingLeft=4;spacingRight=4;overflow=hidden;rotatable=0;points=[[0,0.5],[1,0.5]];portConstraint=eastwest;" parent="gBJKuatceqaCAAXsIEtv-95" vertex="1">
          <mxGeometry y="26" width="640" height="26" as="geometry" />
        </mxCell>
        <mxCell id="gBJKuatceqaCAAXsIEtv-105" value="- start: time_t" style="text;strokeColor=none;fillColor=none;align=left;verticalAlign=top;spacingLeft=4;spacingRight=4;overflow=hidden;rotatable=0;points=[[0,0.5],[1,0.5]];portConstraint=eastwest;" parent="gBJKuatceqaCAAXsIEtv-95" vertex="1">
          <mxGeometry y="52" width="640" height="26" as="geometry" />
        </mxCell>
        <mxCell id="gBJKuatceqaCAAXsIEtv-106" value="- end: time_t" style="text;strokeColor=none;fillColor=none;align=left;verticalAlign=top;spacingLeft=4;spacingRight=4;overflow=hidden;rotatable=0;points=[[0,0.5],[1,0.5]];portConstraint=eastwest;" parent="gBJKuatceqaCAAXsIEtv-95" vertex="1">
          <mxGeometry y="78" width="640" height="26" as="geometry" />
        </mxCell>
        <mxCell id="gBJKuatceqaCAAXsIEtv-113" value="- interval: Interval" style="text;strokeColor=none;fillColor=none;align=left;verticalAlign=top;spacingLeft=4;spacingRight=4;overflow=hidden;rotatable=0;points=[[0,0.5],[1,0.5]];portConstraint=eastwest;" parent="gBJKuatceqaCAAXsIEtv-95" vertex="1">
          <mxGeometry y="104" width="640" height="26" as="geometry" />
        </mxCell>
        <mxCell id="gBJKuatceqaCAAXsIEtv-98" value="" style="line;strokeWidth=1;fillColor=none;align=left;verticalAlign=middle;spacingTop=-1;spacingLeft=3;spacingRight=3;rotatable=0;labelPosition=right;points=[];portConstraint=eastwest;" parent="gBJKuatceqaCAAXsIEtv-95" vertex="1">
          <mxGeometry y="130" width="640" height="8" as="geometry" />
        </mxCell>
        <mxCell id="gBJKuatceqaCAAXsIEtv-119" value="- StockSimulation(tickers: unordered_map&lt;Stock, vector&lt;Bot*&gt;&gt;, start: time_t, end: time_t, interval: Interval)" style="text;strokeColor=none;fillColor=none;align=left;verticalAlign=top;spacingLeft=4;spacingRight=4;overflow=hidden;rotatable=0;points=[[0,0.5],[1,0.5]];portConstraint=eastwest;" parent="gBJKuatceqaCAAXsIEtv-95" vertex="1">
          <mxGeometry y="138" width="640" height="26" as="geometry" />
        </mxCell>
        <mxCell id="gBJKuatceqaCAAXsIEtv-99" value="+ run()" style="text;strokeColor=none;fillColor=none;align=left;verticalAlign=top;spacingLeft=4;spacingRight=4;overflow=hidden;rotatable=0;points=[[0,0.5],[1,0.5]];portConstraint=eastwest;" parent="gBJKuatceqaCAAXsIEtv-95" vertex="1">
          <mxGeometry y="164" width="640" height="26" as="geometry" />
        </mxCell>
        <mxCell id="gBJKuatceqaCAAXsIEtv-121" value="" style="line;strokeWidth=1;fillColor=none;align=left;verticalAlign=middle;spacingTop=-1;spacingLeft=3;spacingRight=3;rotatable=0;labelPosition=right;points=[];portConstraint=eastwest;" parent="gBJKuatceqaCAAXsIEtv-95" vertex="1">
          <mxGeometry y="190" width="640" height="8" as="geometry" />
        </mxCell>
        <mxCell id="gBJKuatceqaCAAXsIEtv-120" value="+ builder(): StockSimulationBuilder" style="text;strokeColor=none;fillColor=none;align=left;verticalAlign=top;spacingLeft=4;spacingRight=4;overflow=hidden;rotatable=0;points=[[0,0.5],[1,0.5]];portConstraint=eastwest;fontStyle=4" parent="gBJKuatceqaCAAXsIEtv-95" vertex="1">
          <mxGeometry y="198" width="640" height="26" as="geometry" />
        </mxCell>
        <mxCell id="gBJKuatceqaCAAXsIEtv-122" style="edgeStyle=orthogonalEdgeStyle;rounded=0;orthogonalLoop=1;jettySize=auto;html=1;endArrow=classic;endFill=1;startArrow=classic;startFill=1;" parent="1" source="gBJKuatceqaCAAXsIEtv-101" target="gBJKuatceqaCAAXsIEtv-95" edge="1">
          <mxGeometry relative="1" as="geometry" />
        </mxCell>
        <mxCell id="gBJKuatceqaCAAXsIEtv-180" style="edgeStyle=orthogonalEdgeStyle;rounded=0;orthogonalLoop=1;jettySize=auto;html=1;startArrow=none;startFill=0;endArrow=classic;endFill=1;" parent="1" source="gBJKuatceqaCAAXsIEtv-101" target="gBJKuatceqaCAAXsIEtv-159" edge="1">
          <mxGeometry relative="1" as="geometry" />
        </mxCell>
        <mxCell id="gBJKuatceqaCAAXsIEtv-184" style="edgeStyle=orthogonalEdgeStyle;rounded=0;orthogonalLoop=1;jettySize=auto;html=1;startArrow=none;startFill=0;endArrow=classic;endFill=1;" parent="1" source="gBJKuatceqaCAAXsIEtv-101" target="gBJKuatceqaCAAXsIEtv-80" edge="1">
          <mxGeometry relative="1" as="geometry">
            <Array as="points">
              <mxPoint x="1570" y="613" />
            </Array>
          </mxGeometry>
        </mxCell>
        <mxCell id="gBJKuatceqaCAAXsIEtv-101" value="StockSimulationBuilder" style="swimlane;fontStyle=1;align=center;verticalAlign=top;childLayout=stackLayout;horizontal=1;startSize=26;horizontalStack=0;resizeParent=1;resizeParentMax=0;resizeLast=0;collapsible=1;marginBottom=0;" parent="1" vertex="1">
          <mxGeometry x="880" y="440" width="480" height="346" as="geometry" />
        </mxCell>
        <mxCell id="gBJKuatceqaCAAXsIEtv-102" value="- tickers: unordered_map&lt;Stock, vector&lt;Bot*&gt;&gt;" style="text;strokeColor=none;fillColor=none;align=left;verticalAlign=top;spacingLeft=4;spacingRight=4;overflow=hidden;rotatable=0;points=[[0,0.5],[1,0.5]];portConstraint=eastwest;" parent="gBJKuatceqaCAAXsIEtv-101" vertex="1">
          <mxGeometry y="26" width="480" height="26" as="geometry" />
        </mxCell>
        <mxCell id="gBJKuatceqaCAAXsIEtv-108" value="- start: time_t" style="text;strokeColor=none;fillColor=none;align=left;verticalAlign=top;spacingLeft=4;spacingRight=4;overflow=hidden;rotatable=0;points=[[0,0.5],[1,0.5]];portConstraint=eastwest;" parent="gBJKuatceqaCAAXsIEtv-101" vertex="1">
          <mxGeometry y="52" width="480" height="26" as="geometry" />
        </mxCell>
        <mxCell id="gBJKuatceqaCAAXsIEtv-109" value="- end: time_t" style="text;strokeColor=none;fillColor=none;align=left;verticalAlign=top;spacingLeft=4;spacingRight=4;overflow=hidden;rotatable=0;points=[[0,0.5],[1,0.5]];portConstraint=eastwest;" parent="gBJKuatceqaCAAXsIEtv-101" vertex="1">
          <mxGeometry y="78" width="480" height="26" as="geometry" />
        </mxCell>
        <mxCell id="gBJKuatceqaCAAXsIEtv-112" value="- interval: Interval" style="text;strokeColor=none;fillColor=none;align=left;verticalAlign=top;spacingLeft=4;spacingRight=4;overflow=hidden;rotatable=0;points=[[0,0.5],[1,0.5]];portConstraint=eastwest;" parent="gBJKuatceqaCAAXsIEtv-101" vertex="1">
          <mxGeometry y="104" width="480" height="26" as="geometry" />
        </mxCell>
        <mxCell id="gBJKuatceqaCAAXsIEtv-103" value="" style="line;strokeWidth=1;fillColor=none;align=left;verticalAlign=middle;spacingTop=-1;spacingLeft=3;spacingRight=3;rotatable=0;labelPosition=right;points=[];portConstraint=eastwest;" parent="gBJKuatceqaCAAXsIEtv-101" vertex="1">
          <mxGeometry y="130" width="480" height="8" as="geometry" />
        </mxCell>
        <mxCell id="gBJKuatceqaCAAXsIEtv-107" value="+ withStartDate(start: time_t): StockSimulationBuilder" style="text;strokeColor=none;fillColor=none;align=left;verticalAlign=top;spacingLeft=4;spacingRight=4;overflow=hidden;rotatable=0;points=[[0,0.5],[1,0.5]];portConstraint=eastwest;" parent="gBJKuatceqaCAAXsIEtv-101" vertex="1">
          <mxGeometry y="138" width="480" height="26" as="geometry" />
        </mxCell>
        <mxCell id="gBJKuatceqaCAAXsIEtv-110" value="+ withEndDate(end: time_t): StockSimulationBuilder" style="text;strokeColor=none;fillColor=none;align=left;verticalAlign=top;spacingLeft=4;spacingRight=4;overflow=hidden;rotatable=0;points=[[0,0.5],[1,0.5]];portConstraint=eastwest;" parent="gBJKuatceqaCAAXsIEtv-101" vertex="1">
          <mxGeometry y="164" width="480" height="26" as="geometry" />
        </mxCell>
        <mxCell id="gBJKuatceqaCAAXsIEtv-116" value="+ withInterval(interval: Interval): StockSimulationBuilder" style="text;strokeColor=none;fillColor=none;align=left;verticalAlign=top;spacingLeft=4;spacingRight=4;overflow=hidden;rotatable=0;points=[[0,0.5],[1,0.5]];portConstraint=eastwest;" parent="gBJKuatceqaCAAXsIEtv-101" vertex="1">
          <mxGeometry y="190" width="480" height="26" as="geometry" />
        </mxCell>
        <mxCell id="gBJKuatceqaCAAXsIEtv-132" value="+ withStock(symbol: string): StockSimulationBuilder" style="text;strokeColor=none;fillColor=none;align=left;verticalAlign=top;spacingLeft=4;spacingRight=4;overflow=hidden;rotatable=0;points=[[0,0.5],[1,0.5]];portConstraint=eastwest;" parent="gBJKuatceqaCAAXsIEtv-101" vertex="1">
          <mxGeometry y="216" width="480" height="26" as="geometry" />
        </mxCell>
        <mxCell id="gBJKuatceqaCAAXsIEtv-133" value="+ withStocks(symbols: vector&lt;string&gt;): StockSimulationBuilder" style="text;strokeColor=none;fillColor=none;align=left;verticalAlign=top;spacingLeft=4;spacingRight=4;overflow=hidden;rotatable=0;points=[[0,0.5],[1,0.5]];portConstraint=eastwest;" parent="gBJKuatceqaCAAXsIEtv-101" vertex="1">
          <mxGeometry y="242" width="480" height="26" as="geometry" />
        </mxCell>
        <mxCell id="gBJKuatceqaCAAXsIEtv-114" value="+ withBot(bot: Bot*): StockSimulationBuilder" style="text;strokeColor=none;fillColor=none;align=left;verticalAlign=top;spacingLeft=4;spacingRight=4;overflow=hidden;rotatable=0;points=[[0,0.5],[1,0.5]];portConstraint=eastwest;" parent="gBJKuatceqaCAAXsIEtv-101" vertex="1">
          <mxGeometry y="268" width="480" height="26" as="geometry" />
        </mxCell>
        <mxCell id="gBJKuatceqaCAAXsIEtv-111" value="+ withBotSubscribedTo(bot: Bot*, symbols: vector&lt;string&gt;): StockSimulationBuilder" style="text;strokeColor=none;fillColor=none;align=left;verticalAlign=top;spacingLeft=4;spacingRight=4;overflow=hidden;rotatable=0;points=[[0,0.5],[1,0.5]];portConstraint=eastwest;" parent="gBJKuatceqaCAAXsIEtv-101" vertex="1">
          <mxGeometry y="294" width="480" height="26" as="geometry" />
        </mxCell>
        <mxCell id="gBJKuatceqaCAAXsIEtv-104" value="+ build(): StockSimulation" style="text;strokeColor=none;fillColor=none;align=left;verticalAlign=top;spacingLeft=4;spacingRight=4;overflow=hidden;rotatable=0;points=[[0,0.5],[1,0.5]];portConstraint=eastwest;" parent="gBJKuatceqaCAAXsIEtv-101" vertex="1">
          <mxGeometry y="320" width="480" height="26" as="geometry" />
        </mxCell>
        <mxCell id="gBJKuatceqaCAAXsIEtv-182" style="edgeStyle=orthogonalEdgeStyle;rounded=0;orthogonalLoop=1;jettySize=auto;html=1;startArrow=none;startFill=0;endArrow=classic;endFill=1;" parent="1" source="gBJKuatceqaCAAXsIEtv-145" target="gBJKuatceqaCAAXsIEtv-80" edge="1">
          <mxGeometry relative="1" as="geometry" />
        </mxCell>
        <mxCell id="gBJKuatceqaCAAXsIEtv-145" value="TemporalIterator" style="swimlane;fontStyle=1;align=center;verticalAlign=top;childLayout=stackLayout;horizontal=1;startSize=26;horizontalStack=0;resizeParent=1;resizeParentMax=0;resizeLast=0;collapsible=1;marginBottom=0;" parent="1" vertex="1">
          <mxGeometry x="1495" y="-242" width="130" height="242" as="geometry" />
        </mxCell>
        <mxCell id="gBJKuatceqaCAAXsIEtv-146" value="- date: time_t" style="text;strokeColor=none;fillColor=none;align=left;verticalAlign=top;spacingLeft=4;spacingRight=4;overflow=hidden;rotatable=0;points=[[0,0.5],[1,0.5]];portConstraint=eastwest;" parent="gBJKuatceqaCAAXsIEtv-145" vertex="1">
          <mxGeometry y="26" width="130" height="26" as="geometry" />
        </mxCell>
        <mxCell id="gBJKuatceqaCAAXsIEtv-156" value="- start: time_t" style="text;strokeColor=none;fillColor=none;align=left;verticalAlign=top;spacingLeft=4;spacingRight=4;overflow=hidden;rotatable=0;points=[[0,0.5],[1,0.5]];portConstraint=eastwest;" parent="gBJKuatceqaCAAXsIEtv-145" vertex="1">
          <mxGeometry y="52" width="130" height="26" as="geometry" />
        </mxCell>
        <mxCell id="gBJKuatceqaCAAXsIEtv-157" value="- end: time_t" style="text;strokeColor=none;fillColor=none;align=left;verticalAlign=top;spacingLeft=4;spacingRight=4;overflow=hidden;rotatable=0;points=[[0,0.5],[1,0.5]];portConstraint=eastwest;" parent="gBJKuatceqaCAAXsIEtv-145" vertex="1">
          <mxGeometry y="78" width="130" height="26" as="geometry" />
        </mxCell>
        <mxCell id="gBJKuatceqaCAAXsIEtv-158" value="- interval: Interval" style="text;strokeColor=none;fillColor=none;align=left;verticalAlign=top;spacingLeft=4;spacingRight=4;overflow=hidden;rotatable=0;points=[[0,0.5],[1,0.5]];portConstraint=eastwest;" parent="gBJKuatceqaCAAXsIEtv-145" vertex="1">
          <mxGeometry y="104" width="130" height="26" as="geometry" />
        </mxCell>
        <mxCell id="gBJKuatceqaCAAXsIEtv-148" value="" style="line;strokeWidth=1;fillColor=none;align=left;verticalAlign=middle;spacingTop=-1;spacingLeft=3;spacingRight=3;rotatable=0;labelPosition=right;points=[];portConstraint=eastwest;" parent="gBJKuatceqaCAAXsIEtv-145" vertex="1">
          <mxGeometry y="130" width="130" height="8" as="geometry" />
        </mxCell>
        <mxCell id="gBJKuatceqaCAAXsIEtv-152" value="+ next(): time_t" style="text;strokeColor=none;fillColor=none;align=left;verticalAlign=top;spacingLeft=4;spacingRight=4;overflow=hidden;rotatable=0;points=[[0,0.5],[1,0.5]];portConstraint=eastwest;" parent="gBJKuatceqaCAAXsIEtv-145" vertex="1">
          <mxGeometry y="138" width="130" height="26" as="geometry" />
        </mxCell>
        <mxCell id="gBJKuatceqaCAAXsIEtv-153" value="+ hasNext(): bool" style="text;strokeColor=none;fillColor=none;align=left;verticalAlign=top;spacingLeft=4;spacingRight=4;overflow=hidden;rotatable=0;points=[[0,0.5],[1,0.5]];portConstraint=eastwest;" parent="gBJKuatceqaCAAXsIEtv-145" vertex="1">
          <mxGeometry y="164" width="130" height="26" as="geometry" />
        </mxCell>
        <mxCell id="gBJKuatceqaCAAXsIEtv-154" value="+ previous(): time_t" style="text;strokeColor=none;fillColor=none;align=left;verticalAlign=top;spacingLeft=4;spacingRight=4;overflow=hidden;rotatable=0;points=[[0,0.5],[1,0.5]];portConstraint=eastwest;" parent="gBJKuatceqaCAAXsIEtv-145" vertex="1">
          <mxGeometry y="190" width="130" height="26" as="geometry" />
        </mxCell>
        <mxCell id="gBJKuatceqaCAAXsIEtv-155" value="+ hasPrevious(): bool" style="text;strokeColor=none;fillColor=none;align=left;verticalAlign=top;spacingLeft=4;spacingRight=4;overflow=hidden;rotatable=0;points=[[0,0.5],[1,0.5]];portConstraint=eastwest;" parent="gBJKuatceqaCAAXsIEtv-145" vertex="1">
          <mxGeometry y="216" width="130" height="26" as="geometry" />
        </mxCell>
        <mxCell id="gBJKuatceqaCAAXsIEtv-178" style="edgeStyle=orthogonalEdgeStyle;rounded=0;orthogonalLoop=1;jettySize=auto;html=1;startArrow=none;startFill=0;endArrow=classic;endFill=1;" parent="1" source="gBJKuatceqaCAAXsIEtv-159" target="gBJKuatceqaCAAXsIEtv-6" edge="1">
          <mxGeometry relative="1" as="geometry" />
        </mxCell>
        <mxCell id="gBJKuatceqaCAAXsIEtv-159" value="Stock" style="swimlane;fontStyle=1;align=center;verticalAlign=top;childLayout=stackLayout;horizontal=1;startSize=26;horizontalStack=0;resizeParent=1;resizeParentMax=0;resizeLast=0;collapsible=1;marginBottom=0;" parent="1" vertex="1">
          <mxGeometry x="480" y="201" width="280" height="164" as="geometry" />
        </mxCell>
        <mxCell id="gBJKuatceqaCAAXsIEtv-160" value="- symbol: string" style="text;strokeColor=none;fillColor=none;align=left;verticalAlign=top;spacingLeft=4;spacingRight=4;overflow=hidden;rotatable=0;points=[[0,0.5],[1,0.5]];portConstraint=eastwest;" parent="gBJKuatceqaCAAXsIEtv-159" vertex="1">
          <mxGeometry y="26" width="280" height="26" as="geometry" />
        </mxCell>
        <mxCell id="gBJKuatceqaCAAXsIEtv-60" value="- states: unordered_map&lt;time_t, StockSnapshot*&gt;" style="text;strokeColor=none;fillColor=none;align=left;verticalAlign=top;spacingLeft=4;spacingRight=4;overflow=hidden;rotatable=0;points=[[0,0.5],[1,0.5]];portConstraint=eastwest;" parent="gBJKuatceqaCAAXsIEtv-159" vertex="1">
          <mxGeometry y="52" width="280" height="26" as="geometry" />
        </mxCell>
        <mxCell id="gBJKuatceqaCAAXsIEtv-166" value="" style="line;strokeWidth=1;fillColor=none;align=left;verticalAlign=middle;spacingTop=-1;spacingLeft=3;spacingRight=3;rotatable=0;labelPosition=right;points=[];portConstraint=eastwest;" parent="gBJKuatceqaCAAXsIEtv-159" vertex="1">
          <mxGeometry y="78" width="280" height="8" as="geometry" />
        </mxCell>
        <mxCell id="gBJKuatceqaCAAXsIEtv-167" value="+ getSymbol(): string" style="text;strokeColor=none;fillColor=none;align=left;verticalAlign=top;spacingLeft=4;spacingRight=4;overflow=hidden;rotatable=0;points=[[0,0.5],[1,0.5]];portConstraint=eastwest;" parent="gBJKuatceqaCAAXsIEtv-159" vertex="1">
          <mxGeometry y="86" width="280" height="26" as="geometry" />
        </mxCell>
        <mxCell id="gBJKuatceqaCAAXsIEtv-177" value="+ getSnapshot(date:time_t): StockSnapshot" style="text;strokeColor=none;fillColor=none;align=left;verticalAlign=top;spacingLeft=4;spacingRight=4;overflow=hidden;rotatable=0;points=[[0,0.5],[1,0.5]];portConstraint=eastwest;" parent="gBJKuatceqaCAAXsIEtv-159" vertex="1">
          <mxGeometry y="112" width="280" height="26" as="geometry" />
        </mxCell>
        <mxCell id="gBJKuatceqaCAAXsIEtv-174" value="+ toString(): string" style="text;strokeColor=none;fillColor=none;align=left;verticalAlign=top;spacingLeft=4;spacingRight=4;overflow=hidden;rotatable=0;points=[[0,0.5],[1,0.5]];portConstraint=eastwest;" parent="gBJKuatceqaCAAXsIEtv-159" vertex="1">
          <mxGeometry y="138" width="280" height="26" as="geometry" />
        </mxCell>
        <mxCell id="gBJKuatceqaCAAXsIEtv-197" style="edgeStyle=orthogonalEdgeStyle;rounded=0;orthogonalLoop=1;jettySize=auto;html=1;startArrow=none;startFill=0;endArrow=classic;endFill=1;" parent="1" source="gBJKuatceqaCAAXsIEtv-185" target="gBJKuatceqaCAAXsIEtv-159" edge="1">
          <mxGeometry relative="1" as="geometry" />
        </mxCell>
        <mxCell id="gBJKuatceqaCAAXsIEtv-199" style="edgeStyle=orthogonalEdgeStyle;rounded=0;orthogonalLoop=1;jettySize=auto;html=1;startArrow=none;startFill=0;endArrow=classic;endFill=1;" parent="1" source="gBJKuatceqaCAAXsIEtv-185" target="gBJKuatceqaCAAXsIEtv-80" edge="1">
          <mxGeometry relative="1" as="geometry" />
        </mxCell>
        <mxCell id="gBJKuatceqaCAAXsIEtv-185" value="YahooFinanceAPI" style="swimlane;fontStyle=1;align=center;verticalAlign=top;childLayout=stackLayout;horizontal=1;startSize=26;horizontalStack=0;resizeParent=1;resizeParentMax=0;resizeLast=0;collapsible=1;marginBottom=0;" parent="1" vertex="1">
          <mxGeometry x="880" y="-13" width="480" height="146" as="geometry" />
        </mxCell>
        <mxCell id="gBJKuatceqaCAAXsIEtv-186" value="- instance: YahooFinanceAPI*" style="text;strokeColor=none;fillColor=none;align=left;verticalAlign=top;spacingLeft=4;spacingRight=4;overflow=hidden;rotatable=0;points=[[0,0.5],[1,0.5]];portConstraint=eastwest;fontStyle=4" parent="gBJKuatceqaCAAXsIEtv-185" vertex="1">
          <mxGeometry y="26" width="480" height="26" as="geometry" />
        </mxCell>
        <mxCell id="gBJKuatceqaCAAXsIEtv-190" value="" style="line;strokeWidth=1;fillColor=none;align=left;verticalAlign=middle;spacingTop=-1;spacingLeft=3;spacingRight=3;rotatable=0;labelPosition=right;points=[];portConstraint=eastwest;" parent="gBJKuatceqaCAAXsIEtv-185" vertex="1">
          <mxGeometry y="52" width="480" height="8" as="geometry" />
        </mxCell>
        <mxCell id="gBJKuatceqaCAAXsIEtv-191" value="- YahooFinanceAPI()" style="text;strokeColor=none;fillColor=none;align=left;verticalAlign=top;spacingLeft=4;spacingRight=4;overflow=hidden;rotatable=0;points=[[0,0.5],[1,0.5]];portConstraint=eastwest;" parent="gBJKuatceqaCAAXsIEtv-185" vertex="1">
          <mxGeometry y="60" width="480" height="26" as="geometry" />
        </mxCell>
        <mxCell id="gBJKuatceqaCAAXsIEtv-195" value="+ populateHistoricalStockData(stock: Stock*, start: time_t, end: time_t, interval: Interval)" style="text;strokeColor=none;fillColor=none;align=left;verticalAlign=top;spacingLeft=4;spacingRight=4;overflow=hidden;rotatable=0;points=[[0,0.5],[1,0.5]];portConstraint=eastwest;" parent="gBJKuatceqaCAAXsIEtv-185" vertex="1">
          <mxGeometry y="86" width="480" height="26" as="geometry" />
        </mxCell>
        <mxCell id="gBJKuatceqaCAAXsIEtv-204" value="" style="line;strokeWidth=1;fillColor=none;align=left;verticalAlign=middle;spacingTop=-1;spacingLeft=3;spacingRight=3;rotatable=0;labelPosition=right;points=[];portConstraint=eastwest;" parent="gBJKuatceqaCAAXsIEtv-185" vertex="1">
          <mxGeometry y="112" width="480" height="8" as="geometry" />
        </mxCell>
        <mxCell id="gBJKuatceqaCAAXsIEtv-194" value="+ getInstance(): YahooFinanceAPI*" style="text;strokeColor=none;fillColor=none;align=left;verticalAlign=top;spacingLeft=4;spacingRight=4;overflow=hidden;rotatable=0;points=[[0,0.5],[1,0.5]];portConstraint=eastwest;fontStyle=4" parent="gBJKuatceqaCAAXsIEtv-185" vertex="1">
          <mxGeometry y="120" width="480" height="26" as="geometry" />
        </mxCell>
        <mxCell id="5DCwSlTbuTS87g7aIms1-1" value="Bot" style="swimlane;fontStyle=1;align=center;verticalAlign=top;childLayout=stackLayout;horizontal=1;startSize=26;horizontalStack=0;resizeParent=1;resizeParentMax=0;resizeLast=0;collapsible=1;marginBottom=0;" vertex="1" parent="1">
          <mxGeometry x="180" y="-410" width="260" height="196" as="geometry" />
        </mxCell>
        <mxCell id="5DCwSlTbuTS87g7aIms1-2" value="- bot_: AbstractBot" style="text;strokeColor=none;fillColor=none;align=left;verticalAlign=top;spacingLeft=4;spacingRight=4;overflow=hidden;rotatable=0;points=[[0,0.5],[1,0.5]];portConstraint=eastwest;" vertex="1" parent="5DCwSlTbuTS87g7aIms1-1">
          <mxGeometry y="26" width="260" height="26" as="geometry" />
        </mxCell>
        <mxCell id="5DCwSlTbuTS87g7aIms1-8" value="" style="line;strokeWidth=1;fillColor=none;align=left;verticalAlign=middle;spacingTop=-1;spacingLeft=3;spacingRight=3;rotatable=0;labelPosition=right;points=[];portConstraint=eastwest;" vertex="1" parent="5DCwSlTbuTS87g7aIms1-1">
          <mxGeometry y="52" width="260" height="8" as="geometry" />
        </mxCell>
        <mxCell id="5DCwSlTbuTS87g7aIms1-9" value="+ setBotType():" style="text;strokeColor=none;fillColor=none;align=left;verticalAlign=top;spacingLeft=4;spacingRight=4;overflow=hidden;rotatable=0;points=[[0,0.5],[1,0.5]];portConstraint=eastwest;" vertex="1" parent="5DCwSlTbuTS87g7aIms1-1">
          <mxGeometry y="60" width="260" height="26" as="geometry" />
        </mxCell>
        <mxCell id="5DCwSlTbuTS87g7aIms1-31" value="+ setBotType(starting balance: double,&#xa;depositPeriod: int, depositAmount:double):" style="text;strokeColor=none;fillColor=none;align=left;verticalAlign=top;spacingLeft=4;spacingRight=4;overflow=hidden;rotatable=0;points=[[0,0.5],[1,0.5]];portConstraint=eastwest;" vertex="1" parent="5DCwSlTbuTS87g7aIms1-1">
          <mxGeometry y="86" width="260" height="44" as="geometry" />
        </mxCell>
        <mxCell id="5DCwSlTbuTS87g7aIms1-10" value="+ notify(currentDay: time_t, &#xa;snapshots: vector&lt;StockSnapshot&gt;): " style="text;strokeColor=none;fillColor=none;align=left;verticalAlign=top;spacingLeft=4;spacingRight=4;overflow=hidden;rotatable=0;points=[[0,0.5],[1,0.5]];portConstraint=eastwest;" vertex="1" parent="5DCwSlTbuTS87g7aIms1-1">
          <mxGeometry y="130" width="260" height="40" as="geometry" />
        </mxCell>
        <mxCell id="5DCwSlTbuTS87g7aIms1-11" value="+ trade(currentDay: time_t)" style="text;strokeColor=none;fillColor=none;align=left;verticalAlign=top;spacingLeft=4;spacingRight=4;overflow=hidden;rotatable=0;points=[[0,0.5],[1,0.5]];portConstraint=eastwest;" vertex="1" parent="5DCwSlTbuTS87g7aIms1-1">
          <mxGeometry y="170" width="260" height="26" as="geometry" />
        </mxCell>
        <mxCell id="5DCwSlTbuTS87g7aIms1-33" value="&lt;&lt;Interface&gt;&gt;&#xa;AbstractBot" style="swimlane;fontStyle=1;align=center;verticalAlign=middle;childLayout=stackLayout;horizontal=1;startSize=26;horizontalStack=0;resizeParent=1;resizeParentMax=0;resizeLast=0;collapsible=1;marginBottom=0;swimlaneLine=1;strokeColor=default;glass=0;shadow=0;rounded=0;" vertex="1" parent="1">
          <mxGeometry x="560" y="-449" width="350" height="230" as="geometry" />
        </mxCell>
        <mxCell id="5DCwSlTbuTS87g7aIms1-34" value="# accountBalance: double&#xa;" style="text;strokeColor=none;fillColor=none;align=left;verticalAlign=top;spacingLeft=4;spacingRight=4;overflow=hidden;rotatable=0;points=[[0,0.5],[1,0.5]];portConstraint=eastwest;" vertex="1" parent="5DCwSlTbuTS87g7aIms1-33">
          <mxGeometry y="26" width="350" height="14" as="geometry" />
        </mxCell>
        <mxCell id="5DCwSlTbuTS87g7aIms1-40" value="# daysToDeposit: int&#xa;" style="text;strokeColor=none;fillColor=none;align=left;verticalAlign=top;spacingLeft=4;spacingRight=4;overflow=hidden;rotatable=0;points=[[0,0.5],[1,0.5]];portConstraint=eastwest;" vertex="1" parent="5DCwSlTbuTS87g7aIms1-33">
          <mxGeometry y="40" width="350" height="18" as="geometry" />
        </mxCell>
        <mxCell id="5DCwSlTbuTS87g7aIms1-41" value="# depositPeriod: int&#xa;" style="text;strokeColor=none;fillColor=none;align=left;verticalAlign=top;spacingLeft=4;spacingRight=4;overflow=hidden;rotatable=0;points=[[0,0.5],[1,0.5]];portConstraint=eastwest;" vertex="1" parent="5DCwSlTbuTS87g7aIms1-33">
          <mxGeometry y="58" width="350" height="22" as="geometry" />
        </mxCell>
        <mxCell id="5DCwSlTbuTS87g7aIms1-42" value="# positions: unordered_map&lt;std::string,Position *&gt;&#xa;" style="text;strokeColor=none;fillColor=none;align=left;verticalAlign=top;spacingLeft=4;spacingRight=4;overflow=hidden;rotatable=0;points=[[0,0.5],[1,0.5]];portConstraint=eastwest;" vertex="1" parent="5DCwSlTbuTS87g7aIms1-33">
          <mxGeometry y="80" width="350" height="20" as="geometry" />
        </mxCell>
        <mxCell id="5DCwSlTbuTS87g7aIms1-44" value="# trades: unordered_map&lt;time_t,std::vector&lt;Trade *&gt;&gt;&#xa;" style="text;strokeColor=none;fillColor=none;align=left;verticalAlign=top;spacingLeft=4;spacingRight=4;overflow=hidden;rotatable=0;points=[[0,0.5],[1,0.5]];portConstraint=eastwest;" vertex="1" parent="5DCwSlTbuTS87g7aIms1-33">
          <mxGeometry y="100" width="350" height="20" as="geometry" />
        </mxCell>
        <mxCell id="5DCwSlTbuTS87g7aIms1-35" value="" style="line;strokeWidth=1;fillColor=none;align=left;verticalAlign=middle;spacingTop=-1;spacingLeft=3;spacingRight=3;rotatable=0;labelPosition=right;points=[];portConstraint=eastwest;" vertex="1" parent="5DCwSlTbuTS87g7aIms1-33">
          <mxGeometry y="120" width="350" height="8" as="geometry" />
        </mxCell>
        <mxCell id="5DCwSlTbuTS87g7aIms1-36" value="- trade(currentDay:time_t):" style="text;strokeColor=none;fillColor=none;align=left;verticalAlign=top;spacingLeft=4;spacingRight=4;overflow=hidden;rotatable=0;points=[[0,0.5],[1,0.5]];portConstraint=eastwest;" vertex="1" parent="5DCwSlTbuTS87g7aIms1-33">
          <mxGeometry y="128" width="350" height="16" as="geometry" />
        </mxCell>
        <mxCell id="5DCwSlTbuTS87g7aIms1-37" value="- deposit(depositAmount: double)" style="text;strokeColor=none;fillColor=none;align=left;verticalAlign=top;spacingLeft=4;spacingRight=4;overflow=hidden;rotatable=0;points=[[0,0.5],[1,0.5]];portConstraint=eastwest;" vertex="1" parent="5DCwSlTbuTS87g7aIms1-33">
          <mxGeometry y="144" width="350" height="20" as="geometry" />
        </mxCell>
        <mxCell id="5DCwSlTbuTS87g7aIms1-47" value="+ checkForDeposit()" style="text;strokeColor=none;fillColor=none;align=left;verticalAlign=top;spacingLeft=4;spacingRight=4;overflow=hidden;rotatable=0;points=[[0,0.5],[1,0.5]];portConstraint=eastwest;" vertex="1" parent="5DCwSlTbuTS87g7aIms1-33">
          <mxGeometry y="164" width="350" height="20" as="geometry" />
        </mxCell>
        <mxCell id="5DCwSlTbuTS87g7aIms1-38" value="+ rankStocks(currentDay: time_t): map&lt;double,Position *&gt;*" style="text;strokeColor=none;fillColor=none;align=left;verticalAlign=top;spacingLeft=4;spacingRight=4;overflow=hidden;rotatable=0;points=[[0,0.5],[1,0.5]];portConstraint=eastwest;" vertex="1" parent="5DCwSlTbuTS87g7aIms1-33">
          <mxGeometry y="184" width="350" height="20" as="geometry" />
        </mxCell>
        <mxCell id="5DCwSlTbuTS87g7aIms1-39" value="+ notify(currentDay: time_t, snapshots: vector&lt;StockSnapshot&gt; " style="text;strokeColor=none;fillColor=none;align=left;verticalAlign=top;spacingLeft=4;spacingRight=4;overflow=hidden;rotatable=0;points=[[0,0.5],[1,0.5]];portConstraint=eastwest;" vertex="1" parent="5DCwSlTbuTS87g7aIms1-33">
          <mxGeometry y="204" width="350" height="26" as="geometry" />
        </mxCell>
        <mxCell id="5DCwSlTbuTS87g7aIms1-45" value="" style="endArrow=classic;html=1;rounded=0;exitX=1;exitY=0.5;exitDx=0;exitDy=0;" edge="1" parent="1" source="5DCwSlTbuTS87g7aIms1-31">
          <mxGeometry width="50" height="50" relative="1" as="geometry">
            <mxPoint x="700" y="-110" as="sourcePoint" />
            <mxPoint x="560" y="-302" as="targetPoint" />
          </mxGeometry>
        </mxCell>
        <mxCell id="5DCwSlTbuTS87g7aIms1-50" value="ConservativeBot" style="swimlane;fontStyle=1;align=center;verticalAlign=top;childLayout=stackLayout;horizontal=1;startSize=26;horizontalStack=0;resizeParent=1;resizeParentMax=0;resizeLast=0;collapsible=1;marginBottom=0;" vertex="1" parent="1">
          <mxGeometry x="140" y="-630" width="350" height="60" as="geometry" />
        </mxCell>
        <mxCell id="5DCwSlTbuTS87g7aIms1-56" value="" style="line;strokeWidth=1;fillColor=none;align=left;verticalAlign=middle;spacingTop=-1;spacingLeft=3;spacingRight=3;rotatable=0;labelPosition=right;points=[];portConstraint=eastwest;" vertex="1" parent="5DCwSlTbuTS87g7aIms1-50">
          <mxGeometry y="26" width="350" height="8" as="geometry" />
        </mxCell>
        <mxCell id="5DCwSlTbuTS87g7aIms1-57" value="- trade(currentDay:time_t):" style="text;strokeColor=none;fillColor=none;align=left;verticalAlign=top;spacingLeft=4;spacingRight=4;overflow=hidden;rotatable=0;points=[[0,0.5],[1,0.5]];portConstraint=eastwest;" vertex="1" parent="5DCwSlTbuTS87g7aIms1-50">
          <mxGeometry y="34" width="350" height="26" as="geometry" />
        </mxCell>
        <mxCell id="5DCwSlTbuTS87g7aIms1-74" value="AggressiveBot" style="swimlane;fontStyle=1;align=center;verticalAlign=top;childLayout=stackLayout;horizontal=1;startSize=26;horizontalStack=0;resizeParent=1;resizeParentMax=0;resizeLast=0;collapsible=1;marginBottom=0;" vertex="1" parent="1">
          <mxGeometry x="580" y="-630" width="350" height="60" as="geometry" />
        </mxCell>
        <mxCell id="5DCwSlTbuTS87g7aIms1-75" value="" style="line;strokeWidth=1;fillColor=none;align=left;verticalAlign=middle;spacingTop=-1;spacingLeft=3;spacingRight=3;rotatable=0;labelPosition=right;points=[];portConstraint=eastwest;" vertex="1" parent="5DCwSlTbuTS87g7aIms1-74">
          <mxGeometry y="26" width="350" height="8" as="geometry" />
        </mxCell>
        <mxCell id="5DCwSlTbuTS87g7aIms1-76" value="- trade(currentDay:time_t):" style="text;strokeColor=none;fillColor=none;align=left;verticalAlign=top;spacingLeft=4;spacingRight=4;overflow=hidden;rotatable=0;points=[[0,0.5],[1,0.5]];portConstraint=eastwest;" vertex="1" parent="5DCwSlTbuTS87g7aIms1-74">
          <mxGeometry y="34" width="350" height="26" as="geometry" />
        </mxCell>
        <mxCell id="5DCwSlTbuTS87g7aIms1-77" value="PassiveBot" style="swimlane;fontStyle=1;align=center;verticalAlign=top;childLayout=stackLayout;horizontal=1;startSize=26;horizontalStack=0;resizeParent=1;resizeParentMax=0;resizeLast=0;collapsible=1;marginBottom=0;" vertex="1" parent="1">
          <mxGeometry x="1040" y="-630" width="350" height="60" as="geometry" />
        </mxCell>
        <mxCell id="5DCwSlTbuTS87g7aIms1-78" value="" style="line;strokeWidth=1;fillColor=none;align=left;verticalAlign=middle;spacingTop=-1;spacingLeft=3;spacingRight=3;rotatable=0;labelPosition=right;points=[];portConstraint=eastwest;" vertex="1" parent="5DCwSlTbuTS87g7aIms1-77">
          <mxGeometry y="26" width="350" height="8" as="geometry" />
        </mxCell>
        <mxCell id="5DCwSlTbuTS87g7aIms1-79" value="- trade(currentDay:time_t):" style="text;strokeColor=none;fillColor=none;align=left;verticalAlign=top;spacingLeft=4;spacingRight=4;overflow=hidden;rotatable=0;points=[[0,0.5],[1,0.5]];portConstraint=eastwest;" vertex="1" parent="5DCwSlTbuTS87g7aIms1-77">
          <mxGeometry y="34" width="350" height="26" as="geometry" />
        </mxCell>
        <mxCell id="5DCwSlTbuTS87g7aIms1-80" value="Implements" style="endArrow=block;endSize=16;endFill=0;html=1;rounded=0;entryX=0.5;entryY=0;entryDx=0;entryDy=0;dashed=1;" edge="1" parent="1" target="5DCwSlTbuTS87g7aIms1-33">
          <mxGeometry x="0.0769" width="160" relative="1" as="geometry">
            <mxPoint x="735" y="-570" as="sourcePoint" />
            <mxPoint x="800" y="-440" as="targetPoint" />
            <mxPoint as="offset" />
          </mxGeometry>
        </mxCell>
        <mxCell id="5DCwSlTbuTS87g7aIms1-83" value="" style="endArrow=none;html=1;rounded=0;entryX=0.457;entryY=1.115;entryDx=0;entryDy=0;entryPerimeter=0;dashed=1;" edge="1" parent="1" target="5DCwSlTbuTS87g7aIms1-79">
          <mxGeometry width="50" height="50" relative="1" as="geometry">
            <mxPoint x="740" y="-520" as="sourcePoint" />
            <mxPoint x="750" y="-460" as="targetPoint" />
            <Array as="points">
              <mxPoint x="1200" y="-520" />
            </Array>
          </mxGeometry>
        </mxCell>
        <mxCell id="5DCwSlTbuTS87g7aIms1-84" value="" style="endArrow=none;html=1;rounded=0;entryX=0.423;entryY=1.115;entryDx=0;entryDy=0;entryPerimeter=0;dashed=1;" edge="1" parent="1" target="5DCwSlTbuTS87g7aIms1-57">
          <mxGeometry width="50" height="50" relative="1" as="geometry">
            <mxPoint x="740" y="-520" as="sourcePoint" />
            <mxPoint x="1209.9499999999998" y="-557.01" as="targetPoint" />
            <Array as="points">
              <mxPoint x="288" y="-520" />
            </Array>
          </mxGeometry>
        </mxCell>
        <mxCell id="5DCwSlTbuTS87g7aIms1-86" value="" style="endArrow=classic;html=1;rounded=0;exitX=0.506;exitY=0.962;exitDx=0;exitDy=0;exitPerimeter=0;dashed=1;" edge="1" parent="1" source="5DCwSlTbuTS87g7aIms1-39">
          <mxGeometry width="50" height="50" relative="1" as="geometry">
            <mxPoint x="737" y="-210" as="sourcePoint" />
            <mxPoint x="380" y="96" as="targetPoint" />
            <Array as="points">
              <mxPoint x="737" y="-80" />
              <mxPoint x="380" y="-80" />
            </Array>
          </mxGeometry>
        </mxCell>
        <mxCell id="5DCwSlTbuTS87g7aIms1-87" value="Position" style="swimlane;fontStyle=1;align=center;verticalAlign=top;childLayout=stackLayout;horizontal=1;startSize=26;horizontalStack=0;resizeParent=1;resizeParentMax=0;resizeLast=0;collapsible=1;marginBottom=0;" vertex="1" parent="1">
          <mxGeometry x="1190" y="-500" width="240" height="230" as="geometry" />
        </mxCell>
        <mxCell id="5DCwSlTbuTS87g7aIms1-88" value="- avg_cost: double" style="text;strokeColor=none;fillColor=none;align=left;verticalAlign=top;spacingLeft=4;spacingRight=4;overflow=hidden;rotatable=0;points=[[0,0.5],[1,0.5]];portConstraint=eastwest;" vertex="1" parent="5DCwSlTbuTS87g7aIms1-87">
          <mxGeometry y="26" width="240" height="24" as="geometry" />
        </mxCell>
        <mxCell id="5DCwSlTbuTS87g7aIms1-89" value="- shares: float" style="text;strokeColor=none;fillColor=none;align=left;verticalAlign=top;spacingLeft=4;spacingRight=4;overflow=hidden;rotatable=0;points=[[0,0.5],[1,0.5]];portConstraint=eastwest;" vertex="1" parent="5DCwSlTbuTS87g7aIms1-87">
          <mxGeometry y="50" width="240" height="20" as="geometry" />
        </mxCell>
        <mxCell id="5DCwSlTbuTS87g7aIms1-90" value="- snapshots: vector&lt;StockSnapshot&gt;" style="text;strokeColor=none;fillColor=none;align=left;verticalAlign=top;spacingLeft=4;spacingRight=4;overflow=hidden;rotatable=0;points=[[0,0.5],[1,0.5]];portConstraint=eastwest;" vertex="1" parent="5DCwSlTbuTS87g7aIms1-87">
          <mxGeometry y="70" width="240" height="26" as="geometry" />
        </mxCell>
        <mxCell id="5DCwSlTbuTS87g7aIms1-93" value="" style="line;strokeWidth=1;fillColor=none;align=left;verticalAlign=middle;spacingTop=-1;spacingLeft=3;spacingRight=3;rotatable=0;labelPosition=right;points=[];portConstraint=eastwest;" vertex="1" parent="5DCwSlTbuTS87g7aIms1-87">
          <mxGeometry y="96" width="240" height="8" as="geometry" />
        </mxCell>
        <mxCell id="5DCwSlTbuTS87g7aIms1-94" value="+ getCurrentPrice() double" style="text;strokeColor=none;fillColor=none;align=left;verticalAlign=top;spacingLeft=4;spacingRight=4;overflow=hidden;rotatable=0;points=[[0,0.5],[1,0.5]];portConstraint=eastwest;" vertex="1" parent="5DCwSlTbuTS87g7aIms1-87">
          <mxGeometry y="104" width="240" height="18" as="geometry" />
        </mxCell>
        <mxCell id="5DCwSlTbuTS87g7aIms1-95" value="+ addShares(shares:float):" style="text;strokeColor=none;fillColor=none;align=left;verticalAlign=top;spacingLeft=4;spacingRight=4;overflow=hidden;rotatable=0;points=[[0,0.5],[1,0.5]];portConstraint=eastwest;" vertex="1" parent="5DCwSlTbuTS87g7aIms1-87">
          <mxGeometry y="122" width="240" height="22" as="geometry" />
        </mxCell>
        <mxCell id="5DCwSlTbuTS87g7aIms1-99" value="+ subShares(shares:float):" style="text;strokeColor=none;fillColor=none;align=left;verticalAlign=top;spacingLeft=4;spacingRight=4;overflow=hidden;rotatable=0;points=[[0,0.5],[1,0.5]];portConstraint=eastwest;" vertex="1" parent="5DCwSlTbuTS87g7aIms1-87">
          <mxGeometry y="144" width="240" height="22" as="geometry" />
        </mxCell>
        <mxCell id="5DCwSlTbuTS87g7aIms1-96" value="+ setAvgCost(price: double, shares:float)" style="text;strokeColor=none;fillColor=none;align=left;verticalAlign=top;spacingLeft=4;spacingRight=4;overflow=hidden;rotatable=0;points=[[0,0.5],[1,0.5]];portConstraint=eastwest;" vertex="1" parent="5DCwSlTbuTS87g7aIms1-87">
          <mxGeometry y="166" width="240" height="20" as="geometry" />
        </mxCell>
        <mxCell id="5DCwSlTbuTS87g7aIms1-97" value="+ getShares() float" style="text;strokeColor=none;fillColor=none;align=left;verticalAlign=top;spacingLeft=4;spacingRight=4;overflow=hidden;rotatable=0;points=[[0,0.5],[1,0.5]];portConstraint=eastwest;" vertex="1" parent="5DCwSlTbuTS87g7aIms1-87">
          <mxGeometry y="186" width="240" height="22" as="geometry" />
        </mxCell>
        <mxCell id="5DCwSlTbuTS87g7aIms1-100" value="+ getAvgCost() float" style="text;strokeColor=none;fillColor=none;align=left;verticalAlign=top;spacingLeft=4;spacingRight=4;overflow=hidden;rotatable=0;points=[[0,0.5],[1,0.5]];portConstraint=eastwest;" vertex="1" parent="5DCwSlTbuTS87g7aIms1-87">
          <mxGeometry y="208" width="240" height="22" as="geometry" />
        </mxCell>
        <mxCell id="5DCwSlTbuTS87g7aIms1-104" value="" style="endArrow=diamondThin;endFill=0;endSize=24;html=1;rounded=0;entryX=1;entryY=-0.05;entryDx=0;entryDy=0;entryPerimeter=0;" edge="1" parent="1" target="5DCwSlTbuTS87g7aIms1-44">
          <mxGeometry width="160" relative="1" as="geometry">
            <mxPoint x="1190" y="-350" as="sourcePoint" />
            <mxPoint x="1150" y="-340" as="targetPoint" />
          </mxGeometry>
        </mxCell>
        <mxCell id="5DCwSlTbuTS87g7aIms1-105" value="0..n" style="text;html=1;align=center;verticalAlign=middle;resizable=0;points=[];autosize=1;strokeColor=none;fillColor=none;" vertex="1" parent="1">
          <mxGeometry x="1140" y="-375" width="40" height="20" as="geometry" />
        </mxCell>
        <mxCell id="5DCwSlTbuTS87g7aIms1-107" value="Trade" style="swimlane;fontStyle=1;align=center;verticalAlign=top;childLayout=stackLayout;horizontal=1;startSize=26;horizontalStack=0;resizeParent=1;resizeParentMax=0;resizeLast=0;collapsible=1;marginBottom=0;" vertex="1" parent="1">
          <mxGeometry x="1000" y="-181" width="220" height="120" as="geometry" />
        </mxCell>
        <mxCell id="5DCwSlTbuTS87g7aIms1-108" value="+ type: int" style="text;strokeColor=none;fillColor=none;align=left;verticalAlign=top;spacingLeft=4;spacingRight=4;overflow=hidden;rotatable=0;points=[[0,0.5],[1,0.5]];portConstraint=eastwest;" vertex="1" parent="5DCwSlTbuTS87g7aIms1-107">
          <mxGeometry y="26" width="220" height="14" as="geometry" />
        </mxCell>
        <mxCell id="5DCwSlTbuTS87g7aIms1-109" value="+ shares: float" style="text;strokeColor=none;fillColor=none;align=left;verticalAlign=top;spacingLeft=4;spacingRight=4;overflow=hidden;rotatable=0;points=[[0,0.5],[1,0.5]];portConstraint=eastwest;" vertex="1" parent="5DCwSlTbuTS87g7aIms1-107">
          <mxGeometry y="40" width="220" height="20" as="geometry" />
        </mxCell>
        <mxCell id="5DCwSlTbuTS87g7aIms1-110" value="+ sharePrice: double" style="text;strokeColor=none;fillColor=none;align=left;verticalAlign=top;spacingLeft=4;spacingRight=4;overflow=hidden;rotatable=0;points=[[0,0.5],[1,0.5]];portConstraint=eastwest;" vertex="1" parent="5DCwSlTbuTS87g7aIms1-107">
          <mxGeometry y="60" width="220" height="26" as="geometry" />
        </mxCell>
        <mxCell id="5DCwSlTbuTS87g7aIms1-119" value="+ stockSymbol: string" style="text;strokeColor=none;fillColor=none;align=left;verticalAlign=top;spacingLeft=4;spacingRight=4;overflow=hidden;rotatable=0;points=[[0,0.5],[1,0.5]];portConstraint=eastwest;" vertex="1" parent="5DCwSlTbuTS87g7aIms1-107">
          <mxGeometry y="86" width="220" height="26" as="geometry" />
        </mxCell>
        <mxCell id="5DCwSlTbuTS87g7aIms1-111" value="" style="line;strokeWidth=1;fillColor=none;align=left;verticalAlign=middle;spacingTop=-1;spacingLeft=3;spacingRight=3;rotatable=0;labelPosition=right;points=[];portConstraint=eastwest;" vertex="1" parent="5DCwSlTbuTS87g7aIms1-107">
          <mxGeometry y="112" width="220" height="8" as="geometry" />
        </mxCell>
        <mxCell id="5DCwSlTbuTS87g7aIms1-120" value="" style="endArrow=diamondThin;endFill=0;endSize=24;html=1;rounded=0;entryX=0.691;entryY=1.115;entryDx=0;entryDy=0;entryPerimeter=0;exitX=0;exitY=0.5;exitDx=0;exitDy=0;" edge="1" parent="1" source="5DCwSlTbuTS87g7aIms1-110" target="5DCwSlTbuTS87g7aIms1-39">
          <mxGeometry width="160" relative="1" as="geometry">
            <mxPoint x="1098" y="-150" as="sourcePoint" />
            <mxPoint x="810" y="-190" as="targetPoint" />
            <Array as="points">
              <mxPoint x="802" y="-108" />
            </Array>
          </mxGeometry>
        </mxCell>
        <mxCell id="5DCwSlTbuTS87g7aIms1-121" value="0..n" style="text;html=1;align=center;verticalAlign=middle;resizable=0;points=[];autosize=1;strokeColor=none;fillColor=none;" vertex="1" parent="1">
          <mxGeometry x="950" y="-140" width="40" height="20" as="geometry" />
        </mxCell>
        <mxCell id="5DCwSlTbuTS87g7aIms1-123" value="" style="endArrow=classic;html=1;rounded=0;exitX=-0.012;exitY=0.341;exitDx=0;exitDy=0;exitPerimeter=0;entryX=0.346;entryY=0;entryDx=0;entryDy=0;entryPerimeter=0;" edge="1" parent="1" source="5DCwSlTbuTS87g7aIms1-31" target="5DCwSlTbuTS87g7aIms1-77">
          <mxGeometry width="50" height="50" relative="1" as="geometry">
            <mxPoint x="50" y="-290" as="sourcePoint" />
            <mxPoint x="1160" y="-650" as="targetPoint" />
            <Array as="points">
              <mxPoint x="50" y="-309" />
              <mxPoint x="50" y="-700" />
              <mxPoint x="1160" y="-700" />
            </Array>
          </mxGeometry>
        </mxCell>
        <mxCell id="5DCwSlTbuTS87g7aIms1-124" value="" style="endArrow=classic;html=1;rounded=0;entryX=0.5;entryY=0;entryDx=0;entryDy=0;" edge="1" parent="1" target="5DCwSlTbuTS87g7aIms1-74">
          <mxGeometry width="50" height="50" relative="1" as="geometry">
            <mxPoint x="755" y="-700" as="sourcePoint" />
            <mxPoint x="600" y="-460" as="targetPoint" />
          </mxGeometry>
        </mxCell>
        <mxCell id="5DCwSlTbuTS87g7aIms1-125" value="" style="endArrow=classic;html=1;rounded=0;entryX=0.5;entryY=0;entryDx=0;entryDy=0;" edge="1" parent="1">
          <mxGeometry width="50" height="50" relative="1" as="geometry">
            <mxPoint x="290" y="-700" as="sourcePoint" />
            <mxPoint x="290" y="-630" as="targetPoint" />
          </mxGeometry>
        </mxCell>
        <mxCell id="5DCwSlTbuTS87g7aIms1-129" value="" style="endArrow=diamondThin;endFill=0;endSize=24;html=1;rounded=0;entryX=0.538;entryY=1.045;entryDx=0;entryDy=0;entryPerimeter=0;exitX=0.75;exitY=0;exitDx=0;exitDy=0;" edge="1" parent="1" source="gBJKuatceqaCAAXsIEtv-6" target="5DCwSlTbuTS87g7aIms1-100">
          <mxGeometry width="160" relative="1" as="geometry">
            <mxPoint x="1250" y="-100" as="sourcePoint" />
            <mxPoint x="1320.08" y="-227" as="targetPoint" />
            <Array as="points">
              <mxPoint x="410" y="-40" />
              <mxPoint x="1320" y="-40" />
            </Array>
          </mxGeometry>
        </mxCell>
        <mxCell id="5DCwSlTbuTS87g7aIms1-130" value="0..n" style="text;html=1;align=center;verticalAlign=middle;resizable=0;points=[];autosize=1;strokeColor=none;fillColor=none;" vertex="1" parent="1">
          <mxGeometry x="425" y="60" width="40" height="20" as="geometry" />
        </mxCell>
        <mxCell id="5DCwSlTbuTS87g7aIms1-131" value="" style="endArrow=classic;html=1;rounded=0;entryX=0;entryY=0;entryDx=0;entryDy=0;dashed=1;" edge="1" parent="1" target="gBJKuatceqaCAAXsIEtv-6">
          <mxGeometry width="50" height="50" relative="1" as="geometry">
            <mxPoint x="320" y="-210" as="sourcePoint" />
            <mxPoint x="324" y="90" as="targetPoint" />
          </mxGeometry>
        </mxCell>
      </root>
    </mxGraphModel>
  </diagram>
</mxfile>
